<svg width="40" height="40" viewBox="0 0 40 40" fill="none" xmlns="http://www.w3.org/2000/svg">
<g opacity="0.7">
<path d="M33.9098 15.2643C33.8941 14.0887 33.6737 12.9247 33.2583 11.8245C32.8981 10.8965 32.348 10.0536 31.6431 9.34989C30.9382 8.64613 30.0939 8.09692 29.1644 7.73733C28.0765 7.32964 26.9272 7.10919 25.7654 7.08538C24.2697 7.01863 23.7954 7 19.9984 7C16.2015 7 15.7148 7 14.2299 7.08538C13.0687 7.10936 11.9199 7.32981 10.8325 7.73733C9.9028 8.09667 9.05845 8.64579 8.35349 9.34958C7.64854 10.0534 7.09849 10.8963 6.73856 11.8245C6.32937 12.9097 6.10903 14.0568 6.08707 15.2162C6.02021 16.7111 6 17.1845 6 20.9752C6 24.7658 6 25.2501 6.08707 26.7341C6.1104 27.8952 6.32963 29.0408 6.73856 30.129C7.0991 31.0568 7.64955 31.8994 8.35474 32.6029C9.05994 33.3064 9.90436 33.8553 10.8341 34.2146C11.9185 34.6386 13.0674 34.8749 14.2315 34.9131C15.7288 34.9798 16.203 35 20 35C23.797 35 24.2837 35 25.7685 34.9131C26.9303 34.8902 28.0796 34.6703 29.1675 34.2627C30.0968 33.9027 30.9408 33.3533 31.6457 32.6496C32.3506 31.9459 32.9008 31.1033 33.2614 30.1755C33.6704 29.0889 33.8896 27.9433 33.9129 26.7807C33.9798 25.2874 34 24.8139 34 21.0217C33.9969 17.2311 33.9969 16.7499 33.9098 15.2643ZM19.9891 28.1436C16.018 28.1436 12.801 24.9319 12.801 20.9674C12.801 17.0029 16.018 13.7912 19.9891 13.7912C21.8955 13.7912 23.7239 14.5473 25.0719 15.8931C26.4199 17.2389 27.1773 19.0642 27.1773 20.9674C27.1773 22.8706 26.4199 24.6959 25.0719 26.0417C23.7239 27.3875 21.8955 28.1436 19.9891 28.1436ZM27.4634 15.1991C26.5351 15.1991 25.7872 14.4509 25.7872 13.5258C25.7872 13.3061 25.8305 13.0886 25.9147 12.8857C25.9989 12.6828 26.1223 12.4984 26.2779 12.3431C26.4335 12.1878 26.6182 12.0646 26.8214 11.9805C27.0247 11.8965 27.2426 11.8532 27.4626 11.8532C27.6826 11.8532 27.9004 11.8965 28.1037 11.9805C28.307 12.0646 28.4917 12.1878 28.6472 12.3431C28.8028 12.4984 28.9262 12.6828 29.0104 12.8857C29.0946 13.0886 29.1379 13.3061 29.1379 13.5258C29.1379 14.4509 28.3885 15.1991 27.4634 15.1991Z" fill="#1F1F1F"/>
<path d="M19.9904 25.97C22.7545 25.97 24.9954 23.7291 24.9954 20.965C24.9954 18.2008 22.7545 15.96 19.9904 15.96C17.2262 15.96 14.9854 18.2008 14.9854 20.965C14.9854 23.7291 17.2262 25.97 19.9904 25.97Z" fill="#1F1F1F"/>
</g>
</svg>
