<svg width="40" height="40" viewBox="0 0 40 40" fill="none" xmlns="http://www.w3.org/2000/svg">
<g opacity="0.7">
<path d="M9 13C10.6569 13 12 11.433 12 9.5C12 7.567 10.6569 6 9 6C7.34315 6 6 7.567 6 9.5C6 11.433 7.34315 13 9 13Z" fill="#1F1F1F"/>
<path d="M15.6049 15.4582V33.9985H21.4989V24.8299C21.4989 22.4106 21.9649 20.0677 25.0362 20.0677C28.0653 20.0677 28.1029 22.8337 28.1029 24.9826V34H34V23.8326C34 18.8382 32.8991 15 26.9222 15C24.0526 15 22.1291 16.538 21.3425 17.9936H21.2628V15.4582H15.6049ZM6 15.4582H11.9034V33.9985H6V15.4582Z" fill="#1F1F1F"/>
</g>
</svg>
