<svg width="40" height="40" viewBox="0 0 40 40" fill="none" xmlns="http://www.w3.org/2000/svg">
<g opacity="0.7">
<path d="M31.4835 11.6865C32.8302 10.8599 33.7219 9.73154 34.1585 8.29654C32.9286 8.96172 31.6088 9.44508 30.2402 9.73154C29.0685 8.47154 27.5852 7.83154 25.8069 7.83154C24.0685 7.83154 22.6002 8.44154 21.4019 9.62821C20.8232 10.1917 20.3656 10.8675 20.0572 11.614C19.7489 12.3606 19.5962 13.1622 19.6085 13.9699C19.6085 14.4849 19.6735 14.9449 19.8035 15.3349C14.6769 15.1599 10.4335 13.0332 7.0902 8.93988C6.52354 9.94154 6.2402 10.9615 6.2402 12.0165C6.2402 14.1849 7.1552 15.9032 8.98187 17.1649C7.9402 17.0765 7.02187 16.8132 6.2402 16.3815C6.2402 17.9299 6.6952 19.2232 7.60687 20.3615C8.49246 21.4708 9.7405 22.2326 11.1319 22.5132C10.6119 22.6465 10.0635 22.7099 9.5002 22.7099C8.9802 22.7099 8.61187 22.6665 8.39353 22.5715C8.77687 23.8332 9.5002 24.8565 10.5452 25.6399C11.5783 26.4243 12.8349 26.8582 14.1319 26.8782C11.9119 28.6199 9.37354 29.4815 6.50187 29.4815C5.79854 29.4815 5.3002 29.4715 4.99854 29.4182C7.82687 31.2549 10.9752 32.1665 14.4585 32.1665C18.0235 32.1665 21.1735 31.2632 23.9152 29.4565C26.6569 27.6599 28.6802 25.4432 29.9802 22.8332C31.2658 20.3077 31.9352 17.5137 31.9335 14.6799V13.8999C33.1318 13.0164 34.1691 11.9334 35.0002 10.6982C33.8779 11.1846 32.6949 11.5171 31.4835 11.6865Z" fill="#1F1F1F"/>
</g>
</svg>
